<svg width="772" height="772" viewBox="0 0 772 772" fill="none" xmlns="http://www.w3.org/2000/svg">
	<style>
		path {
			fill: rgb(46, 46, 46);
		}

		@media (prefers-color-scheme: dark) {
			path {
				fill: rgb(245, 245, 245);
			}
		}
	</style>
	<path fill="#F5F5F5"
		d="m475 552 5 8 13 11-1-2-55-174c25 20 58 38 100 54 23 9 41 18 53 27l-7-8c-12-12-33-24-64-36-42-16-75-34-99-54l55 174ZM367 211l7-18-22-69h-12l27 87ZM693 182c14 26 22 56 22 90h-97l1 17h113c0-33-7-63-22-90-9-16-21-31-35-42 7 7 13 16 18 25ZM585 212c-11-13-27-20-48-20-20 0-35 6-46 17a66 66 0 0 0-17 47c0 16 7 29 19 42l10 8c-8-10-11-21-11-32 0-20 5-36 16-47 11-12 27-18 46-18 14 0 26 3 35 9l-4-6ZM294 300l-11-42-52 200h22l41-158Z" />
	<path fill="#F5F5F5"
		d="M677 409c25 29 37 65 37 110 0 48-15 86-46 114-31 27-73 41-127 41-36 0-69-8-98-23-14-6-26-14-36-23 14 17 32 30 53 41 30 15 63 22 99 22 53 0 95-14 126-41s47-65 47-114a162 162 0 0 0-55-127ZM357 552H206l-30 114H79l-5 17h119l30-114h141l-7-17Z" />
	<path fill="#F5F5F5"
		d="M541 319c-31-13-53-26-65-38a58 58 0 0 1-19-42c0-20 6-35 17-47s26-18 46-18c21 0 37 7 48 21s17 33 17 60h112c0-34-7-64-21-90-15-27-36-47-62-62-27-14-58-21-92-21-52 0-94 14-128 43-22 18-36 41-44 68L317 89H214L39 649h120l30-115h151a167 167 0 0 0 85 100c30 15 63 22 99 22 53 0 95-13 126-41 31-27 47-65 47-114 0-44-12-81-37-109-25-29-65-53-119-73ZM213 440l52-199 53 199H213Zm311 125c-29 0-49-8-62-22l-5-9-54-174c24 20 57 38 99 54 31 13 52 25 64 36 11 12 17 29 17 52 0 42-20 63-59 63Z" />
</svg>